<?xml version="1.0" encoding="UTF-8" standalone="no"?>
<!DOCTYPE svg  PUBLIC '-//W3C//DTD SVG 1.1//EN'  'http://www.w3.org/Graphics/SVG/1.1/DTD/svg11.dtd'>
<svg xmlns="http://www.w3.org/2000/svg">
<defs>
<font id="ColourSans-Regular" horiz-adv-x="671">
<font-face underline-position="-50" font-weight="400" descent="-200" panose-1="2 0 5 3 3 0 0 2 0 4" units-per-em="1000" unicode-range="U+0020-22C5" bbox="-59 -261 1456 891" x-height="484" underline-thickness="50" font-family="ColourSans" ascent="800" cap-height="649"/>
<missing-glyph horiz-adv-x="1000"/>
<glyph glyph-name=".notdef" horiz-adv-x="1000"/>
<glyph glyph-name=".null" horiz-adv-x="0"/>
<glyph glyph-name=".null" horiz-adv-x="0"/>
<glyph glyph-name="nonmarkingreturn" horiz-adv-x="333"/>
<glyph glyph-name="space" horiz-adv-x="265" unicode=" "/>
<glyph glyph-name="exclam" horiz-adv-x="228" unicode="!" d="M168 43q0 -23 -14.5 -38t-39.5 -15q-24 0 -39 15.5t-15 37.5t15 37.5t39 15.5q25 0 39.5 -15t14.5 -38zM153 649l-10 -486h-58l-10 486h78z"/>
<glyph glyph-name="quotedbl" horiz-adv-x="367" unicode='&quot;' d="M300 687l-7 -198h-55l-7 198h69zM135 687l-7 -198h-54l-7 198h68z"/>
<glyph glyph-name="numbersign" horiz-adv-x="712" unicode="#" d="M282 432l-55 -199h196l55 199h-196zM662 171h-187l-47 -171h-69l47 171h-196l-47 -171h-69l47 171h-139v62h156l55 199h-163v62h180l47 167h69l-47 -167h196l47 167h69l-47 -167h146v-62h-163l-55 -199h170v-62z"/>
<glyph glyph-name="dollar" horiz-adv-x="615" unicode="$" d="M128 492q0 -49 35 -74.5t105 -40.5l20 -5v226q-75 -4 -117.5 -33t-42.5 -73zM501 177q0 44 -32 71.5t-101 41.5l-24 5v-242q78 7 117.5 41t39.5 83zM344 -9v-105h-56v105q-153 6 -258 82l28 51q103 -66 230 -72v255l-41 9q-190 37 -190 174q0 74 63 119t168 51v104h56 v-104q111 -6 205 -60l-25 -51q-88 42 -180 49v-238l41 -8q98 -20 142.5 -61t44.5 -110q0 -84 -60.5 -133.5t-167.5 -56.5z"/>
<glyph glyph-name="percent" horiz-adv-x="1067" unicode="%" d="M801 41q65 0 98.5 36t33.5 84t-33.5 84.5t-98.5 36.5t-98.5 -36.5t-33.5 -84.5t33.5 -84t98.5 -36zM801 332q93 0 144.5 -51t51.5 -120q0 -68 -51.5 -119.5t-144.5 -51.5t-144.5 51.5t-51.5 119.5q0 69 51.5 120t144.5 51zM266 370q65 0 98.5 36t33.5 84t-33.5 84.5 t-98.5 36.5t-98.5 -36.5t-33.5 -84.5t33.5 -84t98.5 -36zM266 661q93 0 144.5 -51t51.5 -120q0 -68 -51.5 -119.5t-144.5 -51.5t-144.5 51.5t-51.5 119.5q0 69 51.5 120t144.5 51zM804 644l-505 -678l-47 34l505 676z"/>
<glyph glyph-name="ampersand" horiz-adv-x="822" unicode="&amp;" d="M296 380l4 1q152 39 152 136q0 43 -36.5 72.5t-88.5 29.5q-60 0 -95.5 -28t-35.5 -69q0 -66 100 -142zM120 177q0 -61 56 -95.5t156 -34.5q127 0 201 61q-158 122 -260 213q-68 -17 -110.5 -54t-42.5 -90zM649 377h67q-1 -156 -82 -267q68 -54 129 -69l23 -6l-8 -51 l-32 5q-74 12 -159 79q-94 -78 -260 -78q-132 0 -204.5 49.5t-72.5 134.5q0 69 47 117.5t123 70.5q-94 80 -94 158q0 64 54 110t145 46q94 0 145.5 -48t51.5 -107q0 -70 -43.5 -113.5t-127.5 -70.5q97 -81 232 -187q66 82 66 221v6z"/>
<glyph glyph-name="quotesingle" horiz-adv-x="202" unicode="&apos;" d="M135 687l-7 -198h-54l-7 198h68z"/>
<glyph glyph-name="parenleft" horiz-adv-x="390" unicode="(" d="M50 289q0 155 74 279.5t212 197.5l34 -40q-116 -67 -181 -180t-65 -257t65 -257t181 -180l-34 -40q-138 73 -212 197.5t-74 279.5z"/>
<glyph glyph-name="parenright" horiz-adv-x="390" unicode=")" d="M340 289q0 -155 -74 -279.5t-212 -197.5l-34 40q116 67 181 180t65 257t-65 257t-181 180l34 40q138 -73 212 -197.5t74 -279.5z"/>
<glyph glyph-name="asterisk" horiz-adv-x="403" unicode="*" d="M230 411h-57l4 107l-107 -61l-32 43l120 62l-120 66l32 43l107 -65l-4 107h57l-4 -107l107 65l32 -43l-120 -66l120 -62l-32 -43l-107 61z"/>
<glyph glyph-name="plus" d="M60 273v63h240v224h69v-224h242v-63h-242v-224h-69v224h-240z" unicode="+"/>
<glyph glyph-name="comma" horiz-adv-x="246" unicode="," d="M67 -118l-30 34q63 50 63 122v52h65v-50q0 -44 -25.5 -86.5t-72.5 -71.5z"/>
<glyph glyph-name="hyphen" horiz-adv-x="401" unicode="-" d="M50 243v63h301v-63h-301z"/>
<glyph glyph-name="period" horiz-adv-x="236" unicode="." d="M176 45q0 -23 -16.5 -39t-41.5 -16t-41.5 16t-16.5 39t16.5 39t41.5 16t41.5 -16t16.5 -39z"/>
<glyph glyph-name="slash" horiz-adv-x="557" unicode="/" d="M487 665l-340 -683h-77l340 683h77z"/>
<glyph glyph-name="zero" horiz-adv-x="784" unicode="0" d="M391 52q86 0 148.5 40.5t91.5 101.5t29 133q0 68 -28.5 128.5t-91.5 102t-149 41.5q-65 0 -117.5 -24t-84 -63t-48.5 -87t-17 -98q0 -113 70 -194t197 -81zM391 661q160 0 251.5 -99.5t91.5 -234.5q0 -141 -91 -239t-252 -98q-109 0 -188 48t-116 123t-37 166 q0 64 22 123t63 106.5t107.5 76t148.5 28.5z"/>
<glyph glyph-name="one" horiz-adv-x="593" unicode="1" d="M360 617v-555h193v-62h-500v62h235v518l-5 2l-226 -113l-28 55l218 109q48 24 70 24q19 0 31 -10.5t12 -29.5z"/>
<glyph glyph-name="two" horiz-adv-x="633" unicode="2" d="M61 0v56q0 133 61 197q32 33 78.5 51.5t128.5 32.5q100 16 140.5 48.5t40.5 91.5q0 122 -179 122q-133 0 -237 -53l-20 55q116 60 258 60q122 0 187 -49t65 -135q0 -85 -53.5 -131.5t-183.5 -64.5q-123 -18 -172 -68q-43 -44 -43 -142v-9h428v-62h-499z"/>
<glyph glyph-name="three" horiz-adv-x="641" unicode="3" d="M605 194q0 -89 -79.5 -146.5t-218.5 -57.5q-169 0 -291 92l29 47q52 -35 120.5 -56t134.5 -21q112 0 171.5 38t59.5 101q0 61 -45 90q-47 30 -168 30h-92v60h91q177 0 177 119q0 51 -47.5 80t-136.5 29q-116 0 -221 -50l-22 51q119 61 251 61q110 0 180 -46t70 -122 q0 -53 -29.5 -90.5t-87.5 -53.5v-3q73 -9 113.5 -49t40.5 -103z"/>
<glyph glyph-name="four" horiz-adv-x="664" unicode="4" d="M117 211h347v379h-2zM464 149h-424l-13 55l400 445h109v-438h103v-62h-103v-149h-72v149z"/>
<glyph glyph-name="five" horiz-adv-x="641" unicode="5" d="M178 587l-25 -207q83 35 189 35q137 0 199.5 -57.5t62.5 -148.5q0 -100 -72.5 -159.5t-205.5 -59.5q-87 0 -167.5 26t-131.5 67l29 47q51 -36 124 -57t141 -21q209 0 209 156q0 146 -197 146q-107 0 -209 -42l-41 11l36 326h425v-62h-366z"/>
<glyph glyph-name="six" horiz-adv-x="675" unicode="6" d="M357 52q95 0 153 45.5t58 122.5q0 71 -55 112.5t-149 41.5q-98 0 -165.5 -42t-67.5 -111t62 -119t164 -50zM373 436q128 0 198.5 -61.5t70.5 -154.5q0 -101 -78.5 -165.5t-203.5 -64.5q-149 0 -229.5 79t-80.5 215q0 195 116.5 287t324.5 92h18l3 -55h-16 q-172 0 -268.5 -72t-107.5 -200q33 45 101.5 72.5t151.5 27.5z"/>
<glyph glyph-name="seven" horiz-adv-x="603" unicode="7" d="M576 597l-393 -597h-90l397 587h-464v62h538z"/>
<glyph glyph-name="eight" horiz-adv-x="689" unicode="8" d="M404 308l-170 26q-53 -18 -84 -53.5t-31 -83.5q0 -68 62.5 -106.5t169.5 -38.5q101 0 160 37t59 98q0 95 -166 121zM346 661q113 0 188 -47t75 -126q0 -46 -25 -83.5t-73 -57.5v-3q133 -37 133 -157q0 -83 -79.5 -140t-213.5 -57q-149 0 -227.5 57t-78.5 141 q0 117 123 168v3q-41 17 -64 50.5t-23 74.5q0 82 75.5 129.5t189.5 47.5zM308 383l129 -20q45 18 71.5 51t26.5 70q0 52 -50 83.5t-139 31.5q-91 0 -141 -30.5t-50 -80.5q0 -42 36 -67t117 -38z"/>
<glyph glyph-name="nine" horiz-adv-x="667" unicode="9" d="M320 599q-96 0 -154.5 -41.5t-58.5 -115.5q0 -73 52 -113t149 -40q91 0 159 40t68 109q0 68 -57 114.5t-158 46.5zM303 227q-133 0 -201.5 60t-68.5 154q0 99 80 159.5t202 60.5q147 0 224.5 -75t77.5 -210q0 -198 -114.5 -293t-318.5 -95h-18l-3 55h16q172 0 267 75 t101 215q-32 -53 -97 -79.5t-147 -26.5z"/>
<glyph glyph-name="colon" horiz-adv-x="236" unicode=":" d="M176 422q0 -23 -16.5 -39t-41.5 -16t-41.5 16t-16.5 39t16.5 39t41.5 16t41.5 -16t16.5 -39zM176 45q0 -23 -16.5 -39t-41.5 -16t-41.5 16t-16.5 39t16.5 39t41.5 16t41.5 -16t16.5 -39z"/>
<glyph glyph-name="semicolon" horiz-adv-x="241" unicode=";" d="M67 -118l-30 34q63 50 63 122v52h65v-50q0 -44 -25.5 -86.5t-72.5 -71.5zM190 422q0 -23 -16.5 -39t-41.5 -16t-41.5 16t-16.5 39t16.5 39t41.5 16t41.5 -16t16.5 -39z"/>
<glyph glyph-name="less" d="M109 273v64l475 207l31 -54l-435 -185l435 -185l-31 -54z" unicode="&lt;"/>
<glyph glyph-name="equal" d="M60 393v63h551v-63h-551zM60 154v63h551v-63h-551z" unicode="="/>
<glyph glyph-name="greater" d="M562 337v-64l-475 -207l-31 54l435 185l-435 185l31 54z" unicode="&gt;"/>
<glyph glyph-name="question" horiz-adv-x="593" unicode="?" d="M317 43q0 -23 -14.5 -38t-39.5 -15q-24 0 -39 15.5t-15 37.5t15 37.5t39 15.5q25 0 39.5 -15t14.5 -38zM299 163h-65v15q0 73 30 110t103 64q61 22 85.5 52t24.5 73q0 56 -51 88.5t-144 32.5q-121 0 -235 -61l-22 53q124 70 265 70q114 0 187.5 -49t73.5 -132 q0 -62 -35 -104t-117 -73q-60 -23 -80 -50.5t-20 -76.5v-12z"/>
<glyph glyph-name="at" horiz-adv-x="942" unicode="@" d="M892 363q0 -92 -51.5 -150t-126.5 -58q-86 0 -109 64h-1q-41 -73 -143 -73q-82 0 -133.5 48.5t-51.5 125.5t55 128t140 51q101 0 152 -60q37 -45 37 -110v-65q0 -58 58 -58q47 0 79 43.5t32 109.5q0 116 -99 201t-255 85q-157 0 -257.5 -94.5t-100.5 -232.5 q0 -141 99 -226.5t263 -85.5q165 0 300 73l23 -45q-137 -83 -320 -83q-200 0 -316 104t-116 263q0 165 121 273.5t308 108.5q183 0 298 -99t115 -238zM464 200q59 0 97 33t38 91q0 54 -32 86q-35 35 -95 35q-59 0 -94.5 -35t-35.5 -89q0 -53 34.5 -87t87.5 -34z"/>
<glyph glyph-name="A" horiz-adv-x="727" unicode="A" d="M365 588h-3q-82 -154 -165 -344h332q-64 149 -164 344zM322 649h83q145 -258 296 -649h-74q-33 92 -72 183h-384q-42 -102 -71 -183h-74q140 372 296 649z"/>
<glyph glyph-name="B" horiz-adv-x="697" unicode="B" d="M375 587h-227v-218h235q135 0 135 116q0 54 -34 78t-109 24zM394 307h-246v-245h245q90 0 136 29t46 98q0 61 -44.5 89.5t-136.5 28.5zM76 0v649h295q109 0 165 -37t56 -121q0 -110 -94 -143v-2q74 -10 112.5 -51.5t38.5 -104.5q0 -97 -65 -143.5t-180 -46.5h-328z"/>
<glyph glyph-name="C" horiz-adv-x="735" unicode="C" d="M50 325q0 147 99 241.5t258 94.5q167 0 282 -102l-38 -48q-107 88 -245 88q-123 0 -202.5 -78.5t-79.5 -195.5q0 -123 76 -198t207 -75q136 0 246 83l37 -45q-118 -100 -282 -100q-171 0 -264.5 93t-93.5 242z"/>
<glyph glyph-name="D" horiz-adv-x="765" unicode="D" d="M76 649h303q161 0 251 -85q89 -85 89 -232t-82 -235q-92 -97 -258 -97h-303v649zM369 587h-221v-525h221q141 0 213 78q63 68 63 192q0 114 -60 178q-72 77 -216 77z"/>
<glyph glyph-name="E" horiz-adv-x="617" unicode="E" d="M581 0h-505v649h500v-62h-428v-225h372v-62h-372v-238h433v-62z"/>
<glyph glyph-name="F" horiz-adv-x="569" unicode="F" d="M504 291h-356v-291h-72v649h468v-62h-396v-234h356v-62z"/>
<glyph glyph-name="G" horiz-adv-x="765" unicode="G" d="M627 89v181h-168v62h238v-277q-107 -65 -278 -65q-174 0 -271.5 93.5t-97.5 241.5q0 149 102.5 242.5t263.5 93.5q169 0 280 -95l-38 -47q-102 80 -243 80q-125 0 -208 -77.5t-83 -196.5q0 -122 80 -197.5t212 -75.5q137 0 211 37z"/>
<glyph glyph-name="H" horiz-adv-x="745" unicode="H" d="M669 649v-649h-72v298h-449v-298h-72v649h72v-288h449v288h72z"/>
<glyph glyph-name="I" horiz-adv-x="236" unicode="I" d="M154 649v-649h-72v649h72z"/>
<glyph glyph-name="J" horiz-adv-x="418" unicode="J" d="M64 -7l-32 -3l-7 54l24 3q118 15 176 74q51 52 51 145v383h72v-379q0 -113 -56 -179q-70 -83 -228 -98z"/>
<glyph glyph-name="K" horiz-adv-x="698" unicode="K" d="M148 192v-192h-72v649h72v-369q212 162 386 369h90q-135 -162 -275 -289l205 -237q56 -67 117 -81l13 -3l-10 -54l-27 4q-44 6 -78 30t-76 71l-196 223q-76 -66 -149 -121z"/>
<glyph glyph-name="L" horiz-adv-x="573" unicode="L" d="M543 0h-467v649h72v-587h395v-62z"/>
<glyph glyph-name="M" horiz-adv-x="913" unicode="M" d="M718 649h73q47 -328 58 -649h-69q-8 305 -44 543l-256 -449h-46l-257 449q-36 -238 -44 -543h-69q11 321 58 649h73l261 -466h3z"/>
<glyph glyph-name="N" horiz-adv-x="745" unicode="N" d="M669 649v-649h-55l-470 542v-542h-68v649h61l464 -532v532h68z"/>
<glyph glyph-name="O" horiz-adv-x="802" unicode="O" d="M400 52q133 0 205.5 81t72.5 194q0 110 -72.5 191t-205.5 81q-68 0 -122 -23.5t-87 -62.5t-50 -86.5t-17 -99.5q0 -113 71.5 -194t204.5 -81zM400 661q85 0 154 -28t111 -75t64.5 -106.5t22.5 -124.5q0 -142 -92 -239.5t-260 -97.5t-259 97.5t-91 239.5q0 138 91.5 236 t258.5 98z"/>
<glyph glyph-name="P" horiz-adv-x="659" unicode="P" d="M629 446q0 -92 -51 -150q-61 -69 -196 -69h-234v-227h-72v649h309q122 0 186 -59q58 -55 58 -144zM388 587h-240v-298h238q86 0 131 46q38 40 38 109q0 63 -33 99q-42 44 -134 44z"/>
<glyph glyph-name="Q" horiz-adv-x="802" unicode="Q" d="M400 52q133 0 205.5 81t72.5 194q0 110 -72.5 191t-205.5 81q-68 0 -122 -23.5t-87 -62.5t-50 -86.5t-17 -99.5q0 -113 71.5 -194t204.5 -81zM400 661q85 0 154 -28t111 -75t64.5 -106.5t22.5 -124.5q0 -121 -68 -212.5t-196 -116.5q88 -72 173 -88l36 -7l-15 -55l-36 6 q-144 25 -249 136q-112 1 -192.5 49t-117.5 122.5t-37 165.5q0 138 91.5 236t258.5 98z"/>
<glyph glyph-name="R" horiz-adv-x="681" unicode="R" d="M371 587h-223v-246h220q83 0 126.5 29t43.5 97q0 70 -42 95t-125 25zM612 469q0 -174 -203 -189l140 -170q45 -55 99 -70l11 -3l-7 -52l-22 3q-81 11 -143 88l-164 203h-175v-279h-72v649h296q240 0 240 -180z"/>
<glyph glyph-name="S" horiz-adv-x="623" unicode="S" d="M320 -10q-166 0 -282 83l28 51q52 -33 118.5 -52.5t128.5 -19.5q97 0 146.5 35.5t49.5 89.5q0 44 -32 71.5t-101 41.5l-121 26q-190 37 -190 173q0 79 71.5 125.5t188.5 46.5q128 0 232 -61l-25 -51q-105 50 -210 50q-88 0 -137 -29t-49 -79q0 -49 35 -74t105 -40 l117 -25q98 -20 142.5 -61t44.5 -110q0 -90 -69.5 -140.5t-190.5 -50.5z"/>
<glyph glyph-name="T" horiz-adv-x="653" unicode="T" d="M30 649h593v-62h-270v-587h-72v587h-251v62z"/>
<glyph glyph-name="U" horiz-adv-x="728" unicode="U" d="M364 -10q-142 0 -216 67q-78 73 -78 210v382h72v-381q0 -112 54 -164q55 -52 168 -52t168 52q54 52 54 164v381h72v-382q0 -137 -78 -210q-74 -67 -216 -67z"/>
<glyph glyph-name="V" horiz-adv-x="737" unicode="V" d="M401 0h-65q-189 289 -310 649h75q91 -295 266 -577h3q175 282 266 577h75q-121 -360 -310 -649z"/>
<glyph glyph-name="W" horiz-adv-x="1051" unicode="W" d="M527 577h-3q-85 -289 -196 -577h-77q-144 275 -225 649h72q65 -296 186 -575h4q97 252 189 575h97q92 -323 189 -575h4q121 279 186 575h72q-81 -374 -225 -649h-77q-111 288 -196 577z"/>
<glyph glyph-name="X" horiz-adv-x="711" unicode="X" d="M353 378q120 119 227 271h85q-125 -173 -264 -312q154 -163 278 -337h-87q-99 148 -238 294q-151 -154 -241 -294h-87q107 158 279 335q-142 148 -261 314h83q99 -142 226 -271z"/>
<glyph glyph-name="Y" horiz-adv-x="698" unicode="Y" d="M347 292h4q66 74 134.5 174t110.5 183h81q-118 -216 -292 -418v-231h-72v231q-174 202 -292 418h81q42 -83 110.5 -183t134.5 -174z"/>
<glyph glyph-name="Z" horiz-adv-x="649" unicode="Z" d="M47 587v62h562v-55l-466 -532h447v-62h-548v46l472 541h-467z"/>
<glyph glyph-name="bracketleft" horiz-adv-x="382" unicode="[" d="M344 -170h-256v899h256v-57h-188v-785h188v-57z"/>
<glyph glyph-name="backslash" horiz-adv-x="557" unicode="\" d="M410 -18l-340 683h77l340 -683h-77z"/>
<glyph glyph-name="bracketright" horiz-adv-x="382" unicode="]" d="M294 -170h-256v57h188v785h-188v57h256v-899z"/>
<glyph glyph-name="asciicircum" d="M288 513h96l206 -332l-58 -27l-193 298h-6l-193 -288l-58 27z" unicode="^"/>
<glyph glyph-name="underscore" horiz-adv-x="561" unicode="_" d="M-10 -62v53h581v-53h-581z"/>
<glyph glyph-name="grave" horiz-adv-x="450" unicode="`" d="M311 543l-204 107l39 61l198 -122z"/>
<glyph glyph-name="a" horiz-adv-x="643" unicode="a" d="M310 51q96 0 156 65q45 49 45 125q0 87 -51 138q-54 54 -145 54q-93 0 -146.5 -54t-53.5 -139t52 -137t143 -52zM512 0v87h-2q-28 -43 -81.5 -70t-123.5 -27q-122 0 -191 72t-69 178q0 109 73.5 181.5t197.5 72.5q127 0 197 -75q67 -70 67 -178v-241h-68z"/>
<glyph glyph-name="b" horiz-adv-x="644" unicode="b" d="M133 250q0 -99 50 -148q52 -51 151 -51q97 0 146 55.5t49 135.5q0 82 -51.5 136.5t-141.5 54.5q-87 0 -145 -49t-58 -134zM131 399h2q30 42 86 68.5t122 26.5q121 0 189.5 -72.5t68.5 -179.5q0 -105 -69.5 -178.5t-195.5 -73.5q-128 0 -194 60q-77 69 -77 203v396h68 v-250z"/>
<glyph glyph-name="c" horiz-adv-x="563" unicode="c" d="M497 109l34 -42q-86 -77 -212 -77q-130 0 -202 70t-72 182t76 182t197 70q123 0 214 -80l-34 -42q-80 61 -181 61q-88 0 -145 -52t-57 -139q0 -89 56.5 -140t147.5 -51q103 0 178 58z"/>
<glyph glyph-name="d" horiz-adv-x="644" unicode="d" d="M310 51q102 0 156 61q45 51 45 134q0 69 -42 120q-55 67 -159 67q-92 0 -143.5 -55t-51.5 -137q0 -83 50 -136.5t145 -53.5zM581 649v-401q0 -117 -72 -187q-74 -71 -200 -71t-195 72t-69 179q0 105 72 179t193 74q65 0 118 -25.5t83 -66.5h2v247h68z"/>
<glyph glyph-name="e" horiz-adv-x="600" unicode="e" d="M305 435q-72 0 -124.5 -42t-63.5 -116h367q-6 62 -43 103q-49 55 -136 55zM500 112l33 -43q-91 -79 -221 -79q-124 0 -195 68q-72 68 -72 185q0 33 9 66.5t29.5 67t49.5 59.5t74 42t99 16q118 0 184 -71.5t68 -190.5v-14h-442q5 -75 56 -119q54 -48 142 -48q111 0 186 61 z"/>
<glyph glyph-name="f" horiz-adv-x="291" unicode="f" d="M296 615l-29 -2q-74 -4 -106 -35q-30 -29 -30 -94h152v-56h-152v-428h-68v485q0 85 48 130q45 44 156 49l25 1z"/>
<glyph glyph-name="g" horiz-adv-x="638" unicode="g" d="M517 94h-4q-69 -100 -207 -100q-121 0 -191 71t-70 177q0 104 73 178t198 74q153 0 223 -102q42 -62 42 -167v-104q0 -285 -308 -308l-28 -2l-6 51l25 2q123 10 188 69.5t65 160.5zM306 55q92 0 148 53q57 54 57 133q0 73 -34 120q-52 72 -162 72q-91 0 -145.5 -55.5 t-54.5 -135.5q0 -85 52.5 -136t138.5 -51z"/>
<glyph glyph-name="h" horiz-adv-x="605" unicode="h" d="M314 494q114 0 174 -66q54 -57 54 -155v-273h-68v273q0 70 -37 112q-43 48 -130 48q-72 0 -120 -40q-54 -46 -54 -118v-275h-68v649h68v-238h2q26 36 74.5 59.5t104.5 23.5z"/>
<glyph glyph-name="i" horiz-adv-x="218" unicode="i" d="M45 484q57 -2 81.5 -25t24.5 -78v-381h-68v379q0 28 -10.5 39.5t-34.5 13.5l-18 1v52zM155 598q0 -20 -14.5 -34.5t-35.5 -14.5q-20 0 -34.5 14.5t-14.5 34.5t14.5 34.5t34.5 14.5q21 0 35.5 -14.5t14.5 -34.5z"/>
<glyph glyph-name="j" horiz-adv-x="218" unicode="j" d="M83 379q0 28 -10.5 39.5t-34.5 13.5l-18 1v52l25 -1q57 -2 81.5 -25t24.5 -78v-362q0 -89 -40.5 -137.5t-126.5 -59.5l-23 -3l-9 48l15 3q65 13 90.5 45t25.5 106v358zM155 598q0 -20 -14.5 -34.5t-35.5 -14.5q-20 0 -34.5 14.5t-14.5 34.5t14.5 34.5t34.5 14.5 q21 0 35.5 -14.5t14.5 -34.5z"/>
<glyph glyph-name="k" horiz-adv-x="541" unicode="k" d="M133 158v-158h-68v649h68v-422q83 51 162.5 122t123.5 135h81q-83 -112 -202 -210l126 -172q40 -56 87 -66l10 -2l-7 -49l-20 3q-42 6 -69.5 24t-56.5 58l-121 164q-63 -47 -114 -76z"/>
<glyph glyph-name="l" horiz-adv-x="248" unicode="l" d="M225 -15l-21 2q-73 7 -107 47t-34 119v496h68v-494q0 -56 19 -82.5t65 -35.5l16 -3z"/>
<glyph glyph-name="m" horiz-adv-x="944" unicode="m" d="M472 398h2q52 96 189 96q94 0 151 -45q67 -53 67 -164v-285h-68v285q0 76 -38 112q-37 36 -113 36q-85 0 -122 -42q-34 -37 -34 -109v-282h-68v282q0 72 -34 109q-37 42 -122 42q-76 0 -113 -36q-38 -36 -38 -112v-285h-68v285q0 111 67 164q57 45 153 45q139 0 189 -96z "/>
<glyph glyph-name="n" horiz-adv-x="602" unicode="n" d="M301 494q102 0 166 -50q72 -58 72 -170v-274h-68v274q0 83 -49 124q-42 35 -121 35t-121 -35q-49 -41 -49 -124v-274h-68v274q0 112 72 170q64 50 166 50z"/>
<glyph glyph-name="o" horiz-adv-x="626" unicode="o" d="M313 51q97 0 147.5 56.5t50.5 135.5q0 77 -50.5 133.5t-147.5 56.5t-147.5 -56.5t-50.5 -133.5q0 -79 50.5 -135.5t147.5 -56.5zM313 494q127 0 197.5 -74t70.5 -177t-70.5 -178t-197.5 -75t-197.5 74.5t-70.5 178.5q0 103 70.5 177t197.5 74z"/>
<glyph glyph-name="p" horiz-adv-x="645" unicode="p" d="M331 433q-93 0 -148 -57q-50 -51 -50 -135q0 -90 58 -142q54 -48 150 -48q90 0 139.5 56t49.5 135q0 77 -51 134t-148 57zM63 -171v400q0 120 69 191q72 74 201 74q123 0 195 -74t72 -178q0 -101 -69.5 -176.5t-189.5 -75.5q-71 0 -125 25t-82 66h-3v-252h-68z"/>
<glyph glyph-name="q" horiz-adv-x="643" unicode="q" d="M511 241q0 77 -40 126q-54 66 -158 66q-96 0 -147 -57.5t-51 -133.5q0 -80 49.5 -135.5t143.5 -55.5q96 0 149.5 56.5t53.5 133.5zM314 494q129 0 200 -74q66 -69 66 -185v-406h-68v258h-3q-27 -44 -80.5 -70.5t-121.5 -26.5q-123 0 -192.5 72t-69.5 180q0 102 72 177 t197 75z"/>
<glyph glyph-name="r" horiz-adv-x="357" unicode="r" d="M272 482l62 2v-54l-60 -2q-74 -2 -108.5 -37.5t-34.5 -108.5v-282h-68v285q0 191 209 197z"/>
<glyph glyph-name="s" horiz-adv-x="500" unicode="s" d="M257 -10q-128 0 -228 62l26 45q104 -50 197 -50q146 0 146 86q0 29 -21.5 46t-75.5 26l-95 18q-80 14 -118 46t-38 87q0 66 57 102t149 36q109 0 191 -48l-23 -46q-84 35 -168 35q-61 0 -98.5 -20.5t-37.5 -55.5t26 -52q24 -15 75 -25l92 -17q86 -16 119 -45t33 -85 q0 -67 -56.5 -106t-151.5 -39z"/>
<glyph glyph-name="t" horiz-adv-x="307" unicode="t" d="M272 428h-141v-229q0 -79 25 -110q27 -34 88 -42l31 -4l-4 -50l-37 4q-88 9 -129.5 55.5t-41.5 146.5v448h68v-163h141v-56z"/>
<glyph glyph-name="u" horiz-adv-x="583" unicode="u" d="M289 49q87 0 127 42q36 37 36 119v274h68v-278q0 -103 -59 -159q-60 -57 -172 -57q-113 0 -169 52q-57 53 -57 164v278h68v-275q0 -87 37 -123q38 -37 121 -37z"/>
<glyph glyph-name="v" horiz-adv-x="594" unicode="v" d="M296 63h2q120 175 197 421h72q-93 -282 -239 -484h-62q-146 202 -239 484h72q77 -246 197 -421z"/>
<glyph glyph-name="w" horiz-adv-x="868" unicode="w" d="M436 388h-4q-49 -177 -152 -388h-66q-57 92 -109 226t-78 258h69q24 -111 64 -224t82 -193h3q89 182 151 407h76q62 -225 151 -407h3q42 80 82 193t64 224h69q-26 -124 -78 -258t-109 -226h-66q-103 211 -152 388z"/>
<glyph glyph-name="x" horiz-adv-x="567" unicode="x" d="M547 0h-81q-70 101 -182 216q-108 -103 -182 -216h-82q81 118 217 252q-108 109 -203 232h83q62 -89 167 -194q105 105 167 194h83q-94 -120 -203 -232q107 -111 216 -252z"/>
<glyph glyph-name="y" horiz-adv-x="585" unicode="y" d="M182 -138l25 2q116 7 179 61t68 146h-4q-44 -81 -171 -81q-101 0 -153 45q-63 54 -63 179v270h68v-267q0 -96 38 -133q35 -35 116 -35q77 0 122 42t45 118v275h68v-366q0 -283 -304 -305l-28 -2z"/>
<glyph glyph-name="z" horiz-adv-x="521" unicode="z" d="M36 427v57h440v-58l-357 -369h352v-57h-440v53l357 374h-352z"/>
<glyph glyph-name="braceleft" horiz-adv-x="395" unicode="{" d="M25 238v83q50 3 75.5 22t27.5 61q0 36 -9.5 111.5t-9.5 115.5q0 47 30.5 72.5t81.5 25.5h146v-57h-137q-53 0 -53 -47q0 -37 9.5 -113t9.5 -108q0 -100 -101 -123v-3q101 -25 101 -123q0 -32 -9.5 -108t-9.5 -113q0 -47 53 -47h137v-57h-146q-51 0 -81.5 25.5t-30.5 72.5 q0 40 9.5 115.5t9.5 111.5q-2 42 -27.5 61t-75.5 22z"/>
<glyph glyph-name="bar" horiz-adv-x="256" unicode="|" d="M162 759v-959h-68v959h68z"/>
<glyph glyph-name="braceright" horiz-adv-x="395" unicode="}" d="M370 321v-83q-50 -3 -75.5 -22t-27.5 -61q0 -36 9.5 -111.5t9.5 -115.5q0 -47 -30.5 -72.5t-81.5 -25.5h-146v57h137q53 0 53 47q0 37 -9.5 113t-9.5 108q0 98 101 123v3q-101 23 -101 123q0 32 9.5 108t9.5 113q0 47 -53 47h-137v57h146q51 0 81.5 -25.5t30.5 -72.5 q0 -40 -9.5 -115.5t-9.5 -111.5q2 -42 27.5 -61t75.5 -22z"/>
<glyph glyph-name="asciitilde" d="M612 369l45 -34q-33 -61 -83 -94.5t-104 -33.5q-25 0 -51.5 9t-42 17t-46.5 27q-4 3 -18.5 11.5t-20.5 12t-18.5 10t-20 9.5t-18.5 5.5t-20 2.5q-42 0 -79.5 -27.5t-65.5 -72.5l-54 37q36 60 90.5 96.5t109.5 36.5q26 0 54.5 -10.5t44 -19.5t47.5 -30q3 -2 13 -8.5 t13.5 -8.5t12 -7t12.5 -7t11.5 -6t12.5 -5.5t11.5 -3.5t12.5 -2.5t12 -0.5q74 0 140 97z" unicode="~"/>
<glyph glyph-name="nbspace" horiz-adv-x="265" unicode=" "/>
<glyph glyph-name="exclamdown" horiz-adv-x="228" unicode="¡" d="M168 424q0 -23 -14.5 -38t-39.5 -15q-24 0 -39 15.5t-15 37.5t15 37.5t39 15.5q25 0 39.5 -15t14.5 -38zM143 304l10 -486h-78l10 486h58z"/>
<glyph glyph-name="cent" horiz-adv-x="566" unicode="¢" d="M115 242q0 -80 45.5 -129.5t122.5 -59.5v378q-75 -10 -121.5 -60t-46.5 -129zM283 -113v105q-114 9 -176 77.5t-62 172.5q0 103 66 172t172 78v102h56v-101q109 -6 193 -78l-34 -43q-71 54 -159 60v-381q93 6 159 58l33 -42q-82 -72 -192 -76v-104h-56z"/>
<glyph glyph-name="sterling" horiz-adv-x="600" unicode="£" d="M463 301h-237q26 -63 26 -102q0 -82 -92 -137h411v-62h-508v56q115 70 115 146q0 37 -29 99h-130v62h100q-26 61 -26 107q0 82 65 136.5t184 54.5q115 0 223 -50l-20 -55q-98 43 -202 43q-88 0 -132 -36.5t-44 -92.5q0 -40 31 -107h265v-62z"/>
<glyph glyph-name="yen" horiz-adv-x="690" unicode="¥" d="M83 335h142q-123 159 -205 314h81q42 -83 109.5 -182t134.5 -173h3q66 73 132.5 172t108.5 183h81q-91 -167 -205 -314h158v-62h-208q-7 -8 -20 -23t-14 -17v-38h242v-62h-242v-133h-72v133h-226v62h226v38q-1 2 -14 17t-20 23h-192v62z"/>
<glyph glyph-name="brokenbar" horiz-adv-x="256" unicode="¦" d="M162 179v-349h-68v349h68zM162 729v-353h-68v353h68z"/>
<glyph glyph-name="dieresis" horiz-adv-x="450" unicode="¨" d="M267 627q0 24 18.5 40.5t42.5 16.5t42 -16.5t18 -40.5t-18 -40.5t-42 -16.5t-42.5 16.5t-18.5 40.5zM62 627q0 24 18 40.5t42 16.5t42.5 -16.5t18.5 -40.5t-18.5 -40.5t-42.5 -16.5t-42 16.5t-18 40.5z"/>
<glyph glyph-name="copyright" horiz-adv-x="949" unicode="©" d="M274 326q0 85 56 138t149 53q92 0 164 -60l-30 -41q-58 45 -131 45q-62 0 -101.5 -36t-39.5 -99q0 -68 39 -102.5t104 -34.5q78 0 133 44l26 -39q-69 -59 -159 -59q-103 0 -156.5 52.5t-53.5 138.5zM70 325q0 153 115 261t289 108q175 0 290 -108t115 -261t-115.5 -260.5 t-289.5 -107.5t-289 107.5t-115 260.5zM133 325q0 -130 96 -220.5t245 -90.5t245.5 90.5t96.5 220.5t-96.5 221t-245.5 91t-245 -91t-96 -221z"/>
<glyph glyph-name="ordfeminine" horiz-adv-x="451" unicode="ª" d="M224 304q55 0 91.5 34.5t36.5 87.5t-32 88q-37 34 -93 34q-59 0 -93.5 -34.5t-34.5 -88.5q0 -56 33.5 -88.5t91.5 -32.5zM360 327h-1q-14 -33 -53 -55t-86 -22q-86 0 -134 49.5t-48 125.5t52 126.5t138 50.5q89 0 138 -52q47 -49 47 -125v-164h-53v66z"/>
<glyph glyph-name="guillemotleft" horiz-adv-x="751" unicode="«" d="M456 232l235 -165l-39 -51l-280 195v45l280 195l39 -51l-235 -165v-3zM114 232l235 -165l-39 -51l-280 195v45l280 195l39 -51l-235 -165v-3z"/>
<glyph glyph-name="logicalnot" d="M60 393v63h551v-302h-69v239h-482z" unicode="¬"/>
<glyph glyph-name="uni00AD" horiz-adv-x="401" unicode="­" d="M50 243v63h301v-63h-301z"/>
<glyph glyph-name="registered" horiz-adv-x="949" unicode="®" d="M507 460h-119v-118h112q79 0 79 62q0 31 -17.5 43.5t-54.5 12.5zM647 405q0 -47 -27 -76t-76 -36l55 -67q26 -32 62 -39l6 -1l-11 -44l-16 2q-57 7 -97 59l-69 88h-86v-143h-66v363h193q61 0 96.5 -27.5t35.5 -78.5zM133 325q0 -130 96 -220.5t245 -90.5t245.5 90.5 t96.5 220.5t-96.5 221t-245.5 91t-245 -91t-96 -221zM70 325q0 153 115 261t289 108q175 0 290 -108t115 -261t-115.5 -260.5t-289.5 -107.5t-289 107.5t-115 260.5z"/>
<glyph glyph-name="macron" horiz-adv-x="450" unicode="¯" d="M64 614v59h322v-59h-322z"/>
<glyph glyph-name="degree" horiz-adv-x="424" unicode="°" d="M212 466q44 0 66 26t22 62q0 35 -22.5 60.5t-65.5 25.5t-65.5 -25.5t-22.5 -60.5q0 -36 22 -62t66 -26zM212 691q69 0 108 -40.5t39 -96.5q0 -57 -39 -98t-108 -41q-70 0 -108.5 41t-38.5 98q0 56 39 96.5t108 40.5z"/>
<glyph glyph-name="plusminus" d="M60 0v63h551v-63h-551zM60 352v63h240v204h69v-204h242v-63h-242v-204h-69v204h-240z" unicode="±"/>
<glyph glyph-name="twosuperior" horiz-adv-x="355" unicode="²" d="M28 452v33q0 73 30 107q34 38 125 53q53 9 71 24.5t18 44.5q0 56 -88 56q-71 0 -129 -30l-14 42q68 33 146 33q71 0 108.5 -26.5t37.5 -73.5q0 -52 -31.5 -77.5t-107.5 -37.5q-65 -11 -86 -32q-22 -22 -22 -66v-5h231v-45h-289z"/>
<glyph glyph-name="threesuperior" horiz-adv-x="355" unicode="³" d="M338 559q0 -48 -45.5 -80t-121.5 -32q-101 0 -167 49l21 36q68 -40 140 -40q56 0 84 18.5t28 48.5q0 59 -102 59h-58v45h57q84 0 84 57q0 51 -88 51q-63 0 -121 -28l-12 39q66 34 138 34q66 0 105 -25t39 -67q0 -62 -62 -80v-1q39 -6 60 -28t21 -56z"/>
<glyph glyph-name="acute" horiz-adv-x="450" unicode="´" d="M343 650l-204 -107l-33 46l198 122z"/>
<glyph glyph-name="paragraph" horiz-adv-x="639" unicode="¶" d="M40 475q0 84 55.5 129t142.5 45h361v-62h-82v-690h-72v690h-103v-690h-72v397h-31q-89 0 -144 47t-55 134z"/>
<glyph glyph-name="periodcentered" horiz-adv-x="236" unicode="·" d="M176 321q0 -23 -16.5 -39t-41.5 -16t-41.5 16t-16.5 39t16.5 39t41.5 16t41.5 -16t16.5 -39z"/>
<glyph glyph-name="cedilla" horiz-adv-x="450" unicode="¸" d="M254 10l-31 -79q19 4 52 4q47 0 77 -26t30 -69q0 -47 -34.5 -74t-91.5 -27q-74 0 -132 46l23 38q45 -35 108 -35q29 0 46.5 13t17.5 37q0 23 -17.5 36t-46.5 13q-42 0 -76 -10l-28 14l45 119h58z"/>
<glyph glyph-name="onesuperior" horiz-adv-x="355" unicode="¹" d="M213 786v-284h109v-50h-291v50h124v249l-2 1l-116 -56l-20 41l133 66q20 10 35 10q28 0 28 -27z"/>
<glyph glyph-name="ordmasculine" horiz-adv-x="438" unicode="º" d="M219 304q62 0 94.5 36t32.5 87q0 49 -32.5 85t-94.5 36t-94.5 -36t-32.5 -85q0 -51 32.5 -87t94.5 -36zM219 602q89 0 138.5 -51.5t49.5 -123.5t-49.5 -124.5t-138.5 -52.5t-138.5 52t-49.5 125q0 72 49.5 123.5t138.5 51.5z"/>
<glyph glyph-name="guillemotright" horiz-adv-x="751" unicode="»" d="M372 67l235 165v3l-235 165l39 51l280 -195v-45l-280 -195zM30 67l235 165v3l-235 165l39 51l280 -195v-45l-280 -195z"/>
<glyph glyph-name="onequarter" horiz-adv-x="926" unicode="¼" d="M757 644l-505 -678l-47 34l505 676zM253 653v-284h109v-50h-291v50h124v249l-2 1l-116 -56l-20 41l133 66q20 10 35 10q28 0 28 -27zM588 128h161v177h-1zM749 82h-226l-11 35l222 244h73v-233h53v-46h-53v-82h-58v82z"/>
<glyph glyph-name="onehalf" horiz-adv-x="966" unicode="½" d="M757 644l-505 -678l-47 34l505 676zM595 0v33q0 73 30 107q34 38 125 53q53 9 71 24.5t18 44.5q0 56 -88 56q-71 0 -129 -30l-14 42q68 33 146 33q71 0 108.5 -26.5t37.5 -73.5q0 -52 -31.5 -77.5t-107.5 -37.5q-65 -11 -86 -32q-22 -22 -22 -66v-5h231v-45h-289z M253 653v-284h109v-50h-291v50h124v249l-2 1l-116 -56l-20 41l133 66q20 10 35 10q28 0 28 -27z"/>
<glyph glyph-name="threequarters" horiz-adv-x="929" unicode="¾" d="M396 427q0 -48 -45.5 -80t-121.5 -32q-101 0 -167 49l21 36q68 -40 140 -40q56 0 84 18.5t28 48.5q0 59 -102 59h-58v45h57q84 0 84 57q0 51 -88 51q-63 0 -121 -28l-12 39q66 34 138 34q66 0 105 -25t39 -67q0 -62 -62 -80v-1q39 -6 60 -28t21 -56zM760 644l-505 -678 l-47 34l505 676zM591 128h161v177h-1zM752 82h-226l-11 35l222 244h73v-233h53v-46h-53v-82h-58v82z"/>
<glyph glyph-name="questiondown" horiz-adv-x="593" unicode="¿" d="M290 424q0 23 14.5 38t39.5 15q24 0 39 -15.5t15 -37.5t-15 -37.5t-39 -15.5q-25 0 -39.5 15t-14.5 38zM308 304h65v-15q0 -73 -30 -110t-103 -64q-61 -22 -85.5 -52t-24.5 -73q0 -56 51 -88.5t144 -32.5q121 0 235 61l22 -53q-124 -70 -265 -70q-114 0 -187.5 49 t-73.5 132q0 62 35 104t117 73q60 23 80 50.5t20 76.5v12z"/>
<glyph glyph-name="Agrave" horiz-adv-x="727" unicode="À" d="M426 704l-204 107l39 61l198 -122zM365 588h-3q-82 -154 -165 -344h332q-64 149 -164 344zM405 649q145 -258 296 -649h-74q-33 92 -72 183h-384q-42 -102 -71 -183h-74q140 372 296 649h83z"/>
<glyph glyph-name="Aacute" horiz-adv-x="727" unicode="Á" d="M519 811l-204 -107l-33 46l198 122zM365 588h-3q-82 -154 -165 -344h332q-64 149 -164 344zM405 649q145 -258 296 -649h-74q-33 92 -72 183h-384q-42 -102 -71 -183h-74q140 372 296 649h83z"/>
<glyph glyph-name="Acircumflex" horiz-adv-x="727" unicode="Â" d="M356 797l-95 -101l-45 30l103 128h87l104 -128l-47 -30l-94 101h-13zM365 588h-3q-82 -154 -165 -344h332q-64 149 -164 344zM322 649h83q145 -258 296 -649h-74q-33 92 -72 183h-384q-42 -102 -71 -183h-74q140 372 296 649z"/>
<glyph glyph-name="Atilde" horiz-adv-x="727" unicode="Ã" d="M503 851l47 -26q-13 -40 -45.5 -65t-67.5 -25t-85 30q-44 26 -61 26q-44 0 -68 -55l-47 23q40 94 118 94q35 0 83 -30q44 -26 60 -26q39 0 66 54zM365 588h-3q-82 -154 -165 -344h332q-64 149 -164 344zM405 649q145 -258 296 -649h-74q-33 92 -72 183h-384 q-42 -102 -71 -183h-74q140 372 296 649h83z"/>
<glyph glyph-name="Adieresis" horiz-adv-x="727" unicode="Ä" d="M406 797q0 24 18.5 41t42.5 17t42.5 -17t18.5 -41t-18.5 -41t-42.5 -17t-42.5 17t-18.5 41zM198 797q0 24 18.5 41t42.5 17t42.5 -17t18.5 -41t-18.5 -41t-42.5 -17t-42.5 17t-18.5 41zM365 588h-3q-82 -154 -165 -344h332q-64 149 -164 344zM405 649q145 -258 296 -649 h-74q-33 92 -72 183h-384q-42 -102 -71 -183h-74q140 372 296 649h83z"/>
<glyph glyph-name="Aring" horiz-adv-x="727" unicode="Å" d="M450 784q0 -34 -24.5 -58.5t-62.5 -24.5q-36 0 -61.5 24.5t-25.5 58.5t25 58t62 24q38 0 62.5 -24t24.5 -58zM402 784q0 15 -11 26.5t-28 11.5q-16 0 -27.5 -11.5t-11.5 -26.5t11.5 -26.5t27.5 -11.5q17 0 28 11.5t11 26.5zM365 588h-3q-82 -154 -165 -344h332 q-64 149 -164 344zM405 649q145 -258 296 -649h-74q-33 92 -72 183h-384q-42 -102 -71 -183h-74q140 372 296 649h83z"/>
<glyph glyph-name="AE" horiz-adv-x="1070" unicode="Æ" d="M486 588q-119 -160 -238 -344h281v344h-43zM1034 0h-505v183h-320q-63 -102 -110 -183h-73q194 342 427 649h576v-46v-16h-428v-225h372v-62h-372v-238h433v-16v-46z"/>
<glyph glyph-name="Ccedilla" horiz-adv-x="735" unicode="Ç" d="M50 325q0 147 99 241.5t258 94.5q167 0 282 -102l-38 -48q-107 88 -245 88q-123 0 -202.5 -78.5t-79.5 -195.5q0 -123 76 -198t207 -75q136 0 246 83l37 -45q-118 -100 -282 -100h-9l-23 -59q19 4 52 4q47 0 77 -26t30 -69q0 -47 -34.5 -74t-91.5 -27q-74 0 -132 46 l23 38q45 -35 108 -35q64 0 64 50q0 49 -64 49q-42 0 -76 -10l-28 14l39 103q-141 17 -217 107t-76 224z"/>
<glyph glyph-name="Egrave" horiz-adv-x="617" unicode="È" d="M413 704l-204 107l39 61l198 -122zM581 0h-505v649h500v-62h-428v-225h372v-62h-372v-238h433v-62z"/>
<glyph glyph-name="Eacute" horiz-adv-x="617" unicode="É" d="M470 811l-204 -107l-33 46l198 122zM581 0h-505v649h500v-62h-428v-225h372v-62h-372v-238h433v-62z"/>
<glyph glyph-name="Ecircumflex" horiz-adv-x="617" unicode="Ê" d="M329 797l-95 -101l-45 30l103 128h87l104 -128l-47 -30l-94 101h-13zM581 0h-505v649h500v-62h-428v-225h372v-62h-372v-238h433v-62z"/>
<glyph glyph-name="Edieresis" horiz-adv-x="617" unicode="Ë" d="M372 797q0 24 18.5 41t42.5 17t42.5 -17t18.5 -41t-18.5 -41t-42.5 -17t-42.5 17t-18.5 41zM164 797q0 24 18.5 41t42.5 17t42.5 -17t18.5 -41t-18.5 -41t-42.5 -17t-42.5 17t-18.5 41zM581 0h-505v649h500v-62h-428v-225h372v-62h-372v-238h433v-62z"/>
<glyph glyph-name="Igrave" horiz-adv-x="236" unicode="Ì" d="M171 704l-204 107l39 61l198 -122zM154 0h-72v649h72v-649z"/>
<glyph glyph-name="Iacute" horiz-adv-x="236" unicode="Í" d="M277 811l-204 -107l-33 46l198 122zM154 0h-72v649h72v-649z"/>
<glyph glyph-name="Icircumflex" horiz-adv-x="236" unicode="Î" d="M111 797l-95 -101l-45 30l103 128h87l104 -128l-47 -30l-94 101h-13zM154 649v-649h-72v649h72z"/>
<glyph glyph-name="Idieresis" horiz-adv-x="236" unicode="Ï" d="M161 797q0 24 18.5 41t42.5 17t42.5 -17t18.5 -41t-18.5 -41t-42.5 -17t-42.5 17t-18.5 41zM-47 797q0 24 18.5 41t42.5 17t42.5 -17t18.5 -41t-18.5 -41t-42.5 -17t-42.5 17t-18.5 41zM154 0h-72v649h72v-649z"/>
<glyph glyph-name="Eth" horiz-adv-x="765" unicode="Ð" d="M369 587h-221v-230h192v-63h-192v-232h221q141 0 213 78q63 68 63 192q0 114 -60 178q-72 77 -216 77zM-25 294v63h101v292h303q161 0 251 -85q89 -85 89 -232t-82 -235q-92 -97 -258 -97h-303v294h-101z"/>
<glyph glyph-name="Ntilde" horiz-adv-x="745" unicode="Ñ" d="M512 851l47 -26q-13 -40 -45.5 -65t-67.5 -25t-85 30q-44 26 -61 26q-44 0 -68 -55l-47 23q40 94 118 94q35 0 83 -30q44 -26 60 -26q39 0 66 54zM669 0h-55l-470 542v-542h-68v649h61l464 -532v532h68v-649z"/>
<glyph glyph-name="Ograve" horiz-adv-x="802" unicode="Ò" d="M477 704l-204 107l39 61l198 -122zM400 52q133 0 205.5 81t72.5 194q0 110 -72.5 191t-205.5 81q-68 0 -122 -23.5t-87 -62.5t-50 -86.5t-17 -99.5q0 -113 71.5 -194t204.5 -81zM400 661q85 0 154 -28t111 -75t64.5 -106.5t22.5 -124.5q0 -142 -92 -239.5t-260 -97.5 t-259 97.5t-91 239.5q0 138 91.5 236t258.5 98z"/>
<glyph glyph-name="Oacute" horiz-adv-x="802" unicode="Ó" d="M540 811l-204 -107l-33 46l198 122zM400 52q133 0 205.5 81t72.5 194q0 110 -72.5 191t-205.5 81q-68 0 -122 -23.5t-87 -62.5t-50 -86.5t-17 -99.5q0 -113 71.5 -194t204.5 -81zM400 661q85 0 154 -28t111 -75t64.5 -106.5t22.5 -124.5q0 -142 -92 -239.5t-260 -97.5 t-259 97.5t-91 239.5q0 138 91.5 236t258.5 98z"/>
<glyph glyph-name="Ocircumflex" horiz-adv-x="802" unicode="Ô" d="M394 797l-95 -101l-45 30l103 128h87l104 -128l-47 -30l-94 101h-13zM400 52q133 0 205.5 81t72.5 194q0 110 -72.5 191t-205.5 81q-68 0 -122 -23.5t-87 -62.5t-50 -86.5t-17 -99.5q0 -113 71.5 -194t204.5 -81zM400 661q85 0 154 -28t111 -75t64.5 -106.5t22.5 -124.5 q0 -142 -92 -239.5t-260 -97.5t-259 97.5t-91 239.5q0 138 91.5 236t258.5 98z"/>
<glyph glyph-name="Otilde" horiz-adv-x="802" unicode="Õ" d="M541 851l47 -26q-13 -40 -45.5 -65t-67.5 -25t-85 30q-44 26 -61 26q-44 0 -68 -55l-47 23q40 94 118 94q35 0 83 -30q44 -26 60 -26q39 0 66 54zM400 52q133 0 205.5 81t72.5 194q0 110 -72.5 191t-205.5 81q-68 0 -122 -23.5t-87 -62.5t-50 -86.5t-17 -99.5 q0 -113 71.5 -194t204.5 -81zM400 661q85 0 154 -28t111 -75t64.5 -106.5t22.5 -124.5q0 -142 -92 -239.5t-260 -97.5t-259 97.5t-91 239.5q0 138 91.5 236t258.5 98z"/>
<glyph glyph-name="Odieresis" horiz-adv-x="802" unicode="Ö" d="M444 797q0 24 18.5 41t42.5 17t42.5 -17t18.5 -41t-18.5 -41t-42.5 -17t-42.5 17t-18.5 41zM236 797q0 24 18.5 41t42.5 17t42.5 -17t18.5 -41t-18.5 -41t-42.5 -17t-42.5 17t-18.5 41zM400 52q133 0 205.5 81t72.5 194q0 110 -72.5 191t-205.5 81q-68 0 -122 -23.5 t-87 -62.5t-50 -86.5t-17 -99.5q0 -113 71.5 -194t204.5 -81zM400 661q85 0 154 -28t111 -75t64.5 -106.5t22.5 -124.5q0 -142 -92 -239.5t-260 -97.5t-259 97.5t-91 239.5q0 138 91.5 236t258.5 98z"/>
<glyph glyph-name="multiply" d="M129 73l-45 44l203 187l-203 187l46 45l204 -188l205 188l47 -45l-205 -188l205 -186l-46 -44l-207 187z" unicode="×"/>
<glyph glyph-name="Oslash" horiz-adv-x="802" unicode="Ø" d="M400 52q133 0 205.5 81t72.5 194q0 127 -88 205l-332 -448q62 -32 142 -32zM124 327q0 -132 87 -209l333 447q-63 34 -144 34q-68 0 -122 -23.5t-87 -62.5t-50 -86.5t-17 -99.5zM400 661q103 0 184 -42l72 97l47 -32l-72 -96q59 -47 90 -115.5t31 -145.5 q0 -142 -92 -239.5t-260 -97.5q-102 0 -182 40l-73 -98l-47 34l71 96q-119 94 -119 265q0 138 91.5 236t258.5 98z"/>
<glyph glyph-name="Ugrave" horiz-adv-x="728" unicode="Ù" d="M441 704l-204 107l39 61l198 -122zM364 -10q-142 0 -216 67q-78 73 -78 210v382h72v-381q0 -112 54 -164q55 -52 168 -52t168 52q54 52 54 164v381h72v-382q0 -137 -78 -210q-74 -67 -216 -67z"/>
<glyph glyph-name="Uacute" horiz-adv-x="728" unicode="Ú" d="M502 811l-204 -107l-33 46l198 122zM364 -10q-142 0 -216 67q-78 73 -78 210v382h72v-381q0 -112 54 -164q55 -52 168 -52t168 52q54 52 54 164v381h72v-382q0 -137 -78 -210q-74 -67 -216 -67z"/>
<glyph glyph-name="Ucircumflex" horiz-adv-x="728" unicode="Û" d="M357 797l-95 -101l-45 30l103 128h87l104 -128l-47 -30l-94 101h-13zM364 -10q-142 0 -216 67q-78 73 -78 210v382h72v-381q0 -112 54 -164q55 -52 168 -52t168 52q54 52 54 164v381h72v-382q0 -137 -78 -210q-74 -67 -216 -67z"/>
<glyph glyph-name="Udieresis" horiz-adv-x="728" unicode="Ü" d="M407 797q0 24 18.5 41t42.5 17t42.5 -17t18.5 -41t-18.5 -41t-42.5 -17t-42.5 17t-18.5 41zM199 797q0 24 18.5 41t42.5 17t42.5 -17t18.5 -41t-18.5 -41t-42.5 -17t-42.5 17t-18.5 41zM364 -10q-142 0 -216 67q-78 73 -78 210v382h72v-381q0 -112 54 -164 q55 -52 168 -52t168 52q54 52 54 164v381h72v-382q0 -137 -78 -210q-74 -67 -216 -67z"/>
<glyph glyph-name="Yacute" horiz-adv-x="698" unicode="Ý" d="M500 811l-204 -107l-33 46l198 122zM351 292q66 74 134.5 174t110.5 183h81q-118 -216 -292 -418v-231h-72v231q-174 202 -292 418h81q42 -83 110.5 -183t134.5 -174h4z"/>
<glyph glyph-name="Thorn" horiz-adv-x="659" unicode="Þ" d="M629 331q0 -92 -51 -150q-61 -69 -196 -69h-234v-112h-72v649h72v-115h237q122 0 186 -59q58 -55 58 -144zM388 472h-240v-298h238q86 0 131 46q38 40 38 109q0 63 -33 99q-42 44 -134 44z"/>
<glyph glyph-name="germandbls" horiz-adv-x="648" unicode="ß" d="M312 664q92 0 153.5 -40t61.5 -101q0 -49 -25.5 -75t-75.5 -47q-55 -24 -67 -37q-9 -11 -9 -24q0 -20 17 -34.5t32.5 -19t50.5 -12.5q5 -1 8 -2q40 -9 64.5 -17t50.5 -22.5t38 -38t12 -55.5q0 -67 -56.5 -108t-150.5 -41q-126 0 -212 62l26 45q33 -21 86.5 -35.5 t97.5 -14.5q67 0 103 23t36 62q0 40 -26.5 55.5t-94.5 30.5q-34 8 -55.5 14.5t-46.5 20t-37.5 34.5t-12.5 51q0 19 7.5 35t15 25.5t26 21t26.5 15t31 13.5q6 3 9 4q20 9 31.5 16t21 20.5t9.5 30.5q0 42 -41.5 64t-104.5 22q-80 0 -130 -44.5t-50 -133.5v-503h-68v504 q0 113 68.5 174.5t180.5 61.5z"/>
<glyph glyph-name="agrave" horiz-adv-x="643" unicode="à" d="M394 543l-204 107l39 61l198 -122zM310 51q96 0 156 65q45 49 45 125q0 87 -51 138q-54 54 -145 54q-93 0 -146.5 -54t-53.5 -139t52 -137t143 -52zM512 0v87h-2q-28 -43 -81.5 -70t-123.5 -27q-122 0 -191 72t-69 178q0 109 73.5 181.5t197.5 72.5q127 0 197 -75 q67 -70 67 -178v-241h-68z"/>
<glyph glyph-name="aacute" horiz-adv-x="643" unicode="á" d="M456 650l-204 -107l-33 46l198 122zM310 51q96 0 156 65q45 49 45 125q0 87 -51 138q-54 54 -145 54q-93 0 -146.5 -54t-53.5 -139t52 -137t143 -52zM512 0v87h-2q-28 -43 -81.5 -70t-123.5 -27q-122 0 -191 72t-69 178q0 109 73.5 181.5t197.5 72.5q127 0 197 -75 q67 -70 67 -178v-241h-68z"/>
<glyph glyph-name="acircumflex" horiz-adv-x="643" unicode="â" d="M308 662l-95 -106l-45 30l103 135h87l104 -135l-47 -30l-94 106h-13zM310 51q96 0 156 65q45 49 45 125q0 87 -51 138q-54 54 -145 54q-93 0 -146.5 -54t-53.5 -139t52 -137t143 -52zM512 0v87h-2q-28 -43 -81.5 -70t-123.5 -27q-122 0 -191 72t-69 178q0 109 73.5 181.5 t197.5 72.5q127 0 197 -75q67 -70 67 -178v-241h-68z"/>
<glyph glyph-name="atilde" horiz-adv-x="643" unicode="ã" d="M455 701l47 -26q-13 -40 -45.5 -65t-67.5 -25t-85 30q-44 26 -61 26q-44 0 -68 -55l-47 23q40 94 118 94q35 0 83 -30q44 -26 60 -26q39 0 66 54zM310 51q96 0 156 65q45 49 45 125q0 87 -51 138q-54 54 -145 54q-93 0 -146.5 -54t-53.5 -139t52 -137t143 -52zM512 0v87 h-2q-28 -43 -81.5 -70t-123.5 -27q-122 0 -191 72t-69 178q0 109 73.5 181.5t197.5 72.5q127 0 197 -75q67 -70 67 -178v-241h-68z"/>
<glyph glyph-name="adieresis" horiz-adv-x="643" unicode="ä" d="M355 627q0 24 18.5 40.5t42.5 16.5t42 -16.5t18 -40.5t-18 -40.5t-42 -16.5t-42.5 16.5t-18.5 40.5zM150 627q0 24 18 40.5t42 16.5t42.5 -16.5t18.5 -40.5t-18.5 -40.5t-42.5 -16.5t-42 16.5t-18 40.5zM310 51q96 0 156 65q45 49 45 125q0 87 -51 138q-54 54 -145 54 q-93 0 -146.5 -54t-53.5 -139t52 -137t143 -52zM512 0v87h-2q-28 -43 -81.5 -70t-123.5 -27q-122 0 -191 72t-69 178q0 109 73.5 181.5t197.5 72.5q127 0 197 -75q67 -70 67 -178v-241h-68z"/>
<glyph glyph-name="aring" horiz-adv-x="643" unicode="å" d="M401 654q0 -34 -24.5 -58.5t-62.5 -24.5q-36 0 -61.5 24.5t-25.5 58.5t25 58t62 24q38 0 62.5 -24t24.5 -58zM353 654q0 15 -11 26.5t-28 11.5q-16 0 -27.5 -11.5t-11.5 -26.5t11.5 -26.5t27.5 -11.5q17 0 28 11.5t11 26.5zM310 51q96 0 156 65q45 49 45 125 q0 87 -51 138q-54 54 -145 54q-93 0 -146.5 -54t-53.5 -139t52 -137t143 -52zM512 0v87h-2q-28 -43 -81.5 -70t-123.5 -27q-122 0 -191 72t-69 178q0 109 73.5 181.5t197.5 72.5q127 0 197 -75q67 -70 67 -178v-241h-68z"/>
<glyph glyph-name="ae" horiz-adv-x="1001" unicode="æ" d="M706 435q-72 0 -124.5 -42t-63.5 -116h367q-6 62 -43 103q-49 55 -136 55zM273 49q89 0 133 30.5t44 81.5q0 48 -43.5 77.5t-125.5 29.5q-169 0 -169 -108q0 -47 39.5 -79t121.5 -32zM901 112l33 -43q-91 -79 -221 -79q-124 0 -195 68q-22 21 -35 42q-45 -110 -212 -110 q-113 0 -171 49t-58 122q0 77 60 121.5t172 44.5q121 0 174 -58q0 90 -34.5 128t-125.5 38q-95 0 -202 -31l-10 56q105 34 223 34q156 0 196 -107q76 107 212 107q118 0 184 -71.5t68 -190.5v-14h-442q5 -75 56 -119q54 -48 142 -48q111 0 186 61z"/>
<glyph glyph-name="ccedilla" horiz-adv-x="563" unicode="ç" d="M45 242q0 112 76 182t197 70q118 0 214 -81l-34 -41q-80 61 -181 61q-88 0 -145 -52t-57 -139q0 -89 56.5 -140t147.5 -51q105 0 179 58l33 -42q-87 -77 -212 -77h-8l-23 -59q19 4 52 4q47 0 77 -26t30 -69q0 -47 -34.5 -74t-91.5 -27q-74 0 -132 46l23 38 q45 -35 108 -35q29 0 46.5 13t17.5 37q0 23 -17.5 36t-46.5 13q-42 0 -76 -10l-28 14l39 104q-101 17 -155.5 83.5t-54.5 163.5z"/>
<glyph glyph-name="egrave" horiz-adv-x="600" unicode="è" d="M382 543l-204 107l39 61l198 -122zM305 435q-72 0 -124.5 -42t-63.5 -116h367q-6 62 -43 103q-49 55 -136 55zM500 112l33 -43q-91 -79 -221 -79q-124 0 -195 68q-72 68 -72 185q0 33 9 66.5t29.5 67t49.5 59.5t74 42t99 16q118 0 184 -71.5t68 -190.5v-14h-442 q5 -75 56 -119q54 -48 142 -48q111 0 186 61z"/>
<glyph glyph-name="eacute" horiz-adv-x="600" unicode="é" d="M449 650l-204 -107l-33 46l198 122zM305 435q-72 0 -124.5 -42t-63.5 -116h367q-6 62 -43 103q-49 55 -136 55zM500 112l33 -43q-91 -79 -221 -79q-124 0 -195 68q-72 68 -72 185q0 33 9 66.5t29.5 67t49.5 59.5t74 42t99 16q118 0 184 -71.5t68 -190.5v-14h-442 q5 -75 56 -119q54 -48 142 -48q111 0 186 61z"/>
<glyph glyph-name="ecircumflex" horiz-adv-x="600" unicode="ê" d="M293 662l-95 -106l-45 30l103 135h87l104 -135l-47 -30l-94 106h-13zM305 435q-72 0 -124.5 -42t-63.5 -116h367q-6 62 -43 103q-49 55 -136 55zM500 112l33 -43q-91 -79 -221 -79q-124 0 -195 68q-72 68 -72 185q0 33 9 66.5t29.5 67t49.5 59.5t74 42t99 16 q118 0 184 -71.5t68 -190.5v-14h-442q5 -75 56 -119q54 -48 142 -48q111 0 186 61z"/>
<glyph glyph-name="edieresis" horiz-adv-x="600" unicode="ë" d="M350 627q0 24 18.5 40.5t42.5 16.5t42 -16.5t18 -40.5t-18 -40.5t-42 -16.5t-42.5 16.5t-18.5 40.5zM145 627q0 24 18 40.5t42 16.5t42.5 -16.5t18.5 -40.5t-18.5 -40.5t-42.5 -16.5t-42 16.5t-18 40.5zM305 435q-72 0 -124.5 -42t-63.5 -116h367q-6 62 -43 103 q-49 55 -136 55zM500 112l33 -43q-91 -79 -221 -79q-124 0 -195 68q-72 68 -72 185q0 33 9 66.5t29.5 67t49.5 59.5t74 42t99 16q118 0 184 -71.5t68 -190.5v-14h-442q5 -75 56 -119q54 -48 142 -48q111 0 186 61z"/>
<glyph glyph-name="igrave" horiz-adv-x="218" unicode="ì" d="M151 543l-204 107l39 61l198 -122zM45 484q57 -2 81.5 -25t24.5 -78v-381h-68v379q0 28 -10.5 39.5t-34.5 13.5l-18 1v52z"/>
<glyph glyph-name="iacute" horiz-adv-x="218" unicode="í" d="M235 650l-204 -107l-33 46l198 122zM45 484q57 -2 81.5 -25t24.5 -78v-381h-68v379q0 28 -10.5 39.5t-34.5 13.5l-18 1v52z"/>
<glyph glyph-name="icircumflex" horiz-adv-x="218" unicode="î" d="M97 662l-95 -106l-45 30l103 135h87l104 -135l-47 -30l-94 106h-13zM20 485l25 -1q57 -2 81.5 -25t24.5 -78v-381h-68v379q0 28 -10.5 39.5t-34.5 13.5l-18 1v52z"/>
<glyph glyph-name="idieresis" horiz-adv-x="218" unicode="ï" d="M146 627q0 24 18.5 40.5t42.5 16.5t42 -16.5t18 -40.5t-18 -40.5t-42 -16.5t-42.5 16.5t-18.5 40.5zM-59 627q0 24 18 40.5t42 16.5t42.5 -16.5t18.5 -40.5t-18.5 -40.5t-42.5 -16.5t-42 16.5t-18 40.5zM45 484q57 -2 81.5 -25t24.5 -78v-381h-68v379q0 28 -10.5 39.5 t-34.5 13.5l-18 1v52z"/>
<glyph glyph-name="eth" horiz-adv-x="627" unicode="ð" d="M315 49q89 0 143 47t54 129q0 76 -58.5 123t-145.5 47q-92 0 -142.5 -48.5t-50.5 -125.5q0 -76 52 -124t148 -48zM428 644l-47 -29q201 -107 201 -360q0 -127 -70.5 -196t-201.5 -69q-120 0 -192.5 66t-72.5 165t67 166t187 67q67 0 121.5 -24t83.5 -61q-49 148 -177 213 l-109 -67l-30 45l83 50q-34 16 -98 28l20 46q71 -14 130 -40l75 45z"/>
<glyph glyph-name="ntilde" horiz-adv-x="602" unicode="ñ" d="M441 701l47 -26q-13 -40 -45.5 -65t-67.5 -25t-85 30q-44 26 -61 26q-44 0 -68 -55l-47 23q40 94 118 94q35 0 83 -30q44 -26 60 -26q39 0 66 54zM301 494q102 0 166 -50q72 -58 72 -170v-274h-68v274q0 83 -49 124q-42 35 -121 35t-121 -35q-49 -41 -49 -124v-274h-68 v274q0 112 72 170q64 50 166 50z"/>
<glyph glyph-name="ograve" horiz-adv-x="626" unicode="ò" d="M389 543l-204 107l39 61l198 -122zM313 51q97 0 147.5 56.5t50.5 135.5q0 77 -50.5 133.5t-147.5 56.5t-147.5 -56.5t-50.5 -133.5q0 -79 50.5 -135.5t147.5 -56.5zM313 494q127 0 197.5 -74t70.5 -177t-70.5 -178t-197.5 -75t-197.5 74.5t-70.5 178.5q0 103 70.5 177 t197.5 74z"/>
<glyph glyph-name="oacute" horiz-adv-x="626" unicode="ó" d="M451 650l-204 -107l-33 46l198 122zM313 51q97 0 147.5 56.5t50.5 135.5q0 77 -50.5 133.5t-147.5 56.5t-147.5 -56.5t-50.5 -133.5q0 -79 50.5 -135.5t147.5 -56.5zM313 494q127 0 197.5 -74t70.5 -177t-70.5 -178t-197.5 -75t-197.5 74.5t-70.5 178.5q0 103 70.5 177 t197.5 74z"/>
<glyph glyph-name="ocircumflex" horiz-adv-x="626" unicode="ô" d="M306 662l-95 -106l-45 30l103 135h87l104 -135l-47 -30l-94 106h-13zM313 51q97 0 147.5 56.5t50.5 135.5q0 77 -50.5 133.5t-147.5 56.5t-147.5 -56.5t-50.5 -133.5q0 -79 50.5 -135.5t147.5 -56.5zM313 494q127 0 197.5 -74t70.5 -177t-70.5 -178t-197.5 -75 t-197.5 74.5t-70.5 178.5q0 103 70.5 177t197.5 74z"/>
<glyph glyph-name="otilde" horiz-adv-x="626" unicode="õ" d="M453 701l47 -26q-13 -40 -45.5 -65t-67.5 -25t-85 30q-44 26 -61 26q-44 0 -68 -55l-47 23q40 94 118 94q35 0 83 -30q44 -26 60 -26q39 0 66 54zM313 51q97 0 147.5 56.5t50.5 135.5q0 77 -50.5 133.5t-147.5 56.5t-147.5 -56.5t-50.5 -133.5q0 -79 50.5 -135.5 t147.5 -56.5zM313 494q127 0 197.5 -74t70.5 -177t-70.5 -178t-197.5 -75t-197.5 74.5t-70.5 178.5q0 103 70.5 177t197.5 74z"/>
<glyph glyph-name="odieresis" horiz-adv-x="626" unicode="ö" d="M356 627q0 24 18.5 40.5t42.5 16.5t42 -16.5t18 -40.5t-18 -40.5t-42 -16.5t-42.5 16.5t-18.5 40.5zM151 627q0 24 18 40.5t42 16.5t42.5 -16.5t18.5 -40.5t-18.5 -40.5t-42.5 -16.5t-42 16.5t-18 40.5zM313 51q97 0 147.5 56.5t50.5 135.5q0 77 -50.5 133.5t-147.5 56.5 t-147.5 -56.5t-50.5 -133.5q0 -79 50.5 -135.5t147.5 -56.5zM313 494q127 0 197.5 -74t70.5 -177t-70.5 -178t-197.5 -75t-197.5 74.5t-70.5 178.5q0 103 70.5 177t197.5 74z"/>
<glyph glyph-name="divide" d="M60 273v63h551v-63h-551zM389 493q0 -23 -16.5 -39t-41.5 -16t-41.5 16t-16.5 39t16.5 39t41.5 16t41.5 -16t16.5 -39zM389 116q0 -23 -16.5 -39t-41.5 -16t-41.5 16t-16.5 39t16.5 39t41.5 16t41.5 -16t16.5 -39z" unicode="÷"/>
<glyph glyph-name="oslash" horiz-adv-x="626" unicode="ø" d="M313 51q97 0 147.5 56.5t50.5 135.5q0 86 -57 139l-232 -314q39 -17 91 -17zM115 243q0 -89 58 -143l234 314q-41 19 -94 19q-97 0 -147.5 -56.5t-50.5 -133.5zM313 494q73 0 132 -28l70 93l47 -32l-68 -92q87 -72 87 -192q0 -103 -70.5 -178t-197.5 -75q-73 0 -130 27 l-64 -87l-47 34l62 84q-89 72 -89 195q0 103 70.5 177t197.5 74z"/>
<glyph glyph-name="ugrave" horiz-adv-x="583" unicode="ù" d="M362 543l-204 107l39 61l198 -122zM289 49q87 0 127 42q36 37 36 119v274h68v-278q0 -103 -59 -159q-60 -57 -172 -57q-113 0 -169 52q-57 53 -57 164v278h68v-275q0 -87 37 -123q38 -37 121 -37z"/>
<glyph glyph-name="uacute" horiz-adv-x="583" unicode="ú" d="M443 650l-204 -107l-33 46l198 122zM289 49q87 0 127 42q36 37 36 119v274h68v-278q0 -103 -59 -159q-60 -57 -172 -57q-113 0 -169 52q-57 53 -57 164v278h68v-275q0 -87 37 -123q38 -37 121 -37z"/>
<glyph glyph-name="ucircumflex" horiz-adv-x="583" unicode="û" d="M284 662l-95 -106l-45 30l103 135h87l104 -135l-47 -30l-94 106h-13zM289 49q87 0 127 42q36 37 36 119v274h68v-278q0 -103 -59 -159q-60 -57 -172 -57q-113 0 -169 52q-57 53 -57 164v278h68v-275q0 -87 37 -123q38 -37 121 -37z"/>
<glyph glyph-name="udieresis" horiz-adv-x="583" unicode="ü" d="M333 627q0 24 18.5 40.5t42.5 16.5t42 -16.5t18 -40.5t-18 -40.5t-42 -16.5t-42.5 16.5t-18.5 40.5zM128 627q0 24 18 40.5t42 16.5t42.5 -16.5t18.5 -40.5t-18.5 -40.5t-42.5 -16.5t-42 16.5t-18 40.5zM289 49q87 0 127 42q36 37 36 119v274h68v-278q0 -103 -59 -159 q-60 -57 -172 -57q-113 0 -169 52q-57 53 -57 164v278h68v-275q0 -87 37 -123q38 -37 121 -37z"/>
<glyph glyph-name="yacute" horiz-adv-x="585" unicode="ý" d="M434 650l-204 -107l-33 46l198 122zM182 -138l25 2q116 7 179 61t68 146h-4q-44 -81 -171 -81q-101 0 -153 45q-63 54 -63 179v270h68v-267q0 -96 38 -133q35 -35 116 -35q77 0 122 42t45 118v275h68v-366q0 -283 -304 -305l-28 -2z"/>
<glyph glyph-name="thorn" horiz-adv-x="645" unicode="þ" d="M63 -171v820h68v-250h2q30 42 86.5 68.5t122.5 26.5q121 0 189.5 -72.5t68.5 -179.5q0 -101 -69.5 -176.5t-189.5 -75.5q-71 0 -125 25t-82 66h-3v-252h-68zM133 247q0 -96 58 -148q54 -48 150 -48q90 0 139.5 56t49.5 135q0 82 -51.5 136.5t-141.5 54.5 q-86 0 -145 -50.5t-59 -135.5z"/>
<glyph glyph-name="OE" horiz-adv-x="1212" unicode="Œ" d="M409 52q98 0 165 36t97 94v279q-31 61 -102 99.5t-164 38.5q-131 0 -206 -81.5t-75 -190.5q0 -112 76.5 -193.5t208.5 -81.5zM1176 0h-505v94q-95 -104 -263 -104q-167 0 -262.5 98t-95.5 239q0 88 40.5 162.5t124 123t193.5 48.5q81 0 150 -28t113 -76v92h500v-46v-16 h-428v-225h372v-62h-372v-238h433v-16v-46z"/>
<glyph glyph-name="oe" horiz-adv-x="1066" unicode="œ" d="M771 435q-72 0 -124.5 -42t-63.5 -116h367q-6 62 -43 103q-49 55 -136 55zM313 51q97 0 147.5 56.5t50.5 135.5v5q-2 75 -52.5 130t-145.5 55q-97 0 -147.5 -56.5t-50.5 -133.5q0 -79 50.5 -135.5t147.5 -56.5zM313 494q84 0 142.5 -38.5t89.5 -99.5h2q67 138 225 138 q118 0 184 -71.5t68 -190.5v-14h-442q5 -75 56 -119q54 -48 142 -48q111 0 186 61l33 -43q-91 -79 -221 -79q-76 0 -139 34.5t-94 96.5h-2q-65 -131 -230 -131q-127 0 -197.5 74.5t-70.5 178.5q0 103 70.5 177t197.5 74z"/>
<glyph glyph-name="Scaron" horiz-adv-x="623" unicode="Š" d="M189 891l115 -106h13l114 106l47 -30l-124 -135h-87l-123 135zM320 -10q-166 0 -282 83l28 51q52 -33 118.5 -52.5t128.5 -19.5q97 0 146.5 35.5t49.5 89.5q0 44 -32 71.5t-101 41.5l-121 26q-190 37 -190 173q0 79 71.5 125.5t188.5 46.5q128 0 232 -61l-25 -51 q-105 50 -210 50q-88 0 -137 -29t-49 -79q0 -49 35 -74t105 -40l117 -25q98 -20 142.5 -61t44.5 -110q0 -90 -69.5 -140.5t-190.5 -50.5z"/>
<glyph glyph-name="scaron" horiz-adv-x="523" unicode="š" d="M144 721l115 -106h13l114 106l47 -30l-124 -135h-87l-123 135zM270 -10q-128 0 -228 62l26 45q104 -50 197 -50q146 0 146 86q0 29 -21.5 46t-75.5 26l-95 18q-80 14 -118 46t-38 87q0 66 57 102t149 36q109 0 191 -48l-23 -46q-84 35 -168 35q-61 0 -98.5 -20.5 t-37.5 -55.5t26 -52q24 -15 75 -25l92 -17q86 -16 119 -45t33 -85q0 -67 -56.5 -106t-151.5 -39z"/>
<glyph glyph-name="Ydieresis" horiz-adv-x="698" unicode="Ÿ" d="M392 797q0 24 18.5 41t42.5 17t42.5 -17t18.5 -41t-18.5 -41t-42.5 -17t-42.5 17t-18.5 41zM184 797q0 24 18.5 41t42.5 17t42.5 -17t18.5 -41t-18.5 -41t-42.5 -17t-42.5 17t-18.5 41zM351 292q66 74 134.5 174t110.5 183h81q-118 -216 -292 -418v-231h-72v231 q-174 202 -292 418h81q42 -83 110.5 -183t134.5 -174h4z"/>
<glyph glyph-name="circumflex" horiz-adv-x="450" unicode="ˆ" d="M218 662l-95 -106l-45 30l103 135h87l104 -135l-47 -30l-94 106h-13z"/>
<glyph glyph-name="tilde" horiz-adv-x="450" unicode="˜" d="M365 701l47 -26q-13 -40 -45.5 -65t-67.5 -25t-85 30q-44 26 -61 26q-44 0 -68 -55l-47 23q40 94 118 94q35 0 83 -30q44 -26 60 -26q39 0 66 54z"/>
<glyph glyph-name="endash" horiz-adv-x="691" unicode="–" d="M50 243v63h591v-63h-591z"/>
<glyph glyph-name="emdash" horiz-adv-x="941" unicode="—" d="M50 243v63h841v-63h-841z"/>
<glyph glyph-name="quoteleft" horiz-adv-x="208" unicode="‘" d="M134 681l27 -34q-61 -46 -61 -106v-55h-63v55q0 39 26.5 76.5t70.5 63.5z"/>
<glyph glyph-name="quotesinglbase" horiz-adv-x="208" unicode="‚" d="M74 -79l-27 34q61 46 61 106v55h63v-55q0 -39 -26.5 -76.5t-70.5 -63.5z"/>
<glyph glyph-name="quotedblleft" horiz-adv-x="377" unicode="“" d="M303 681l27 -34q-61 -46 -61 -106v-55h-63v55q0 39 26.5 76.5t70.5 63.5zM134 681l27 -34q-61 -46 -61 -106v-55h-63v55q0 39 26.5 76.5t70.5 63.5z"/>
<glyph glyph-name="quotedblright" horiz-adv-x="377" unicode="”" d="M74 478l-27 34q61 46 61 106v55h63v-55q0 -39 -26.5 -76.5t-70.5 -63.5zM243 478l-27 34q61 46 61 106v55h63v-55q0 -39 -26.5 -76.5t-70.5 -63.5z"/>
<glyph glyph-name="ellipsis" horiz-adv-x="668" unicode="…" d="M608 45q0 -23 -16.5 -39t-41.5 -16t-41.5 16t-16.5 39t16.5 39t41.5 16t41.5 -16t16.5 -39zM392 45q0 -23 -16.5 -39t-41.5 -16t-41.5 16t-16.5 39t16.5 39t41.5 16t41.5 -16t16.5 -39zM176 45q0 -23 -16.5 -39t-41.5 -16t-41.5 16t-16.5 39t16.5 39t41.5 16t41.5 -16 t16.5 -39z"/>
<glyph glyph-name="perthousand" horiz-adv-x="1526" unicode="‰" d="M1260 41q65 0 98.5 36t33.5 84t-33.5 84.5t-98.5 36.5t-98.5 -36.5t-33.5 -84.5t33.5 -84t98.5 -36zM1260 332q93 0 144.5 -51t51.5 -120q0 -68 -51.5 -119.5t-144.5 -51.5t-144.5 51.5t-51.5 119.5q0 69 51.5 120t144.5 51zM801 41q65 0 98.5 36t33.5 84t-33.5 84.5 t-98.5 36.5t-98.5 -36.5t-33.5 -84.5t33.5 -84t98.5 -36zM801 332q93 0 144.5 -51t51.5 -120q0 -68 -51.5 -119.5t-144.5 -51.5t-144.5 51.5t-51.5 119.5q0 69 51.5 120t144.5 51zM266 370q65 0 98.5 36t33.5 84t-33.5 84.5t-98.5 36.5t-98.5 -36.5t-33.5 -84.5t33.5 -84 t98.5 -36zM266 661q93 0 144.5 -51t51.5 -120q0 -68 -51.5 -119.5t-144.5 -51.5t-144.5 51.5t-51.5 119.5q0 69 51.5 120t144.5 51zM807 643l-505 -678l-52 36l505 676z"/>
<glyph glyph-name="guilsinglleft" horiz-adv-x="409" unicode="‹" d="M114 232l235 -165l-39 -51l-280 195v45l280 195l39 -51l-235 -165v-3z"/>
<glyph glyph-name="guilsinglright" horiz-adv-x="409" unicode="›" d="M60 67l235 165v3l-235 165l39 51l280 -195v-45l-280 -195z"/>
<glyph glyph-name="fraction" d="M603 644l-505 -678l-47 34l505 676z" unicode="⁄"/>
<glyph glyph-name="Euro" horiz-adv-x="766" unicode="€" d="M566 223h-352q26 -80 91.5 -125.5t161.5 -45.5q129 0 234 83l35 -45q-113 -100 -268 -100q-133 0 -218 63t-113 170h-111v62h101q-2 26 -2 40q0 12 2 38h-101v62h112q30 107 117.5 171.5t211.5 64.5q158 0 268 -102l-36 -48q-102 88 -233 88q-90 0 -156.5 -47.5 t-94.5 -126.5h351v-62h-365q-2 -26 -2 -38q0 -27 2 -40h365v-62z"/>
<glyph glyph-name="trademark" horiz-adv-x="700" unicode="™" d="M31 649h245v-47h-93v-219h-61v219h-91v47zM508 411h-48l-83 179q-10 -64 -16 -207h-57q7 123 25 266h70l84 -177h2l84 177h70q18 -143 25 -266h-57q-6 129 -16 207z"/>
<glyph glyph-name="minus" d="M60 273v63h551v-63h-551z" unicode="−"/>
<glyph glyph-name="approxequal" d="M611 520l47 -39q-87 -113 -191 -113q-55 0 -141 45.5t-125 45.5q-77 0 -142 -87l-46 38q36 55 85.5 85.5t103.5 30.5q52 0 139 -47.5t132 -47.5q35 0 72.5 24.5t65.5 64.5zM611 290l44 -35q-87 -114 -188 -114q-55 0 -141 45.5t-125 45.5q-77 0 -142 -87l-44 36 q77 115 187 115q52 0 139 -47.5t132 -47.5q35 0 73.5 25.5t64.5 63.5z" unicode="≈"/>
<glyph glyph-name="notequal" d="M60 393v63h304l60 139h67l-61 -139h181v-63h-208l-76 -176h284v-63h-312l-60 -139h-67l60 139h-172v63h200l76 176h-276z" unicode="≠"/>
<glyph glyph-name="lessequal" d="M582 536l-419 -154v-2l419 -154l-25 -55l-475 177v66l475 177zM60 0v63h551v-63h-551z" unicode="≤"/>
<glyph glyph-name="greaterequal" d="M508 382l-419 154l25 55l475 -177v-66l-475 -177l-25 55l419 154v2zM611 63v-63h-551v63h551z" unicode="≥"/>
<glyph glyph-name="uni22C5" horiz-adv-x="236" unicode="⋅" d="M176 321q0 -23 -16.5 -39t-41.5 -16t-41.5 16t-16.5 39t16.5 39t41.5 16t41.5 -16t16.5 -39z"/>
</font>
</defs>
</svg>
